<svg width="50" height="50" viewBox="0 0 50 50" fill="none" xmlns="http://www.w3.org/2000/svg">
<path fill-rule="evenodd" clip-rule="evenodd" d="M39.5833 43.75H10.4167C8.11562 43.75 6.25 41.8844 6.25 39.5833V10.4167C6.25 8.11562 8.11562 6.25 10.4167 6.25H39.5833C41.8844 6.25 43.75 8.11562 43.75 10.4167V39.5833C43.75 41.8844 41.8844 43.75 39.5833 43.75Z" fill="#212121"/>
<path d="M35.6844 35.4168H28.9792L14.4053 14.5835H21.1105L35.6844 35.4168ZM29.7782 33.6502H32.448L20.3115 16.3502H17.6417L29.7782 33.6502Z" fill="white"/>
<path d="M16.5271 35.4165L24.0302 26.7249L23.0489 25.4238L14.3989 35.4165H16.5271Z" fill="white"/>
<path d="M25.4688 22.6262L26.4115 23.9689L34.5167 14.5835H32.4333L25.4688 22.6262Z" fill="white"/>
</svg>
